<svg viewBox="0 0 26 19" fill="none" xmlns="http://www.w3.org/2000/svg">
<path fill-rule="evenodd" clip-rule="evenodd" d="M15.5948 15.3521C13.3858 14.4561 12.4058 16.8001 11.2078 17.2191C8.4718 18.1791 6.3418 14.2021 6.3418 14.2021C6.3418 14.2021 7.2338 13.8561 8.3418 13.0401C10.0218 11.8001 10.7118 11.0341 12.1808 10.5601C13.3738 10.6991 15.1138 13.0091 15.5948 15.3521Z" fill="#23B175"/>
<path fill-rule="evenodd" clip-rule="evenodd" d="M18.8378 18.3386C20.8728 14.3976 24.2878 12.4166 24.2878 12.4166C24.2878 12.4166 22.5358 10.7666 19.5188 9.94962C15.8898 8.97062 13.4258 9.95962 13.4258 9.95962C13.4258 9.95962 16.0298 11.2856 16.8158 15.6186C17.2748 18.1586 18.7158 18.3386 18.8378 18.3386" fill="#EC5956"/>
<path fill-rule="evenodd" clip-rule="evenodd" d="M14.0622 0.0250324C12.4332 -0.0659676 10.6592 0.0860324 8.73519 0.565032C3.19819 1.95103 -2.30381 7.84103 0.995192 12.417C3.99819 16.359 8.57319 11.016 11.7182 9.41503C10.4942 6.26803 11.6662 2.87803 14.0622 0.0250324" fill="#27A8E0"/>
<path fill-rule="evenodd" clip-rule="evenodd" d="M15.3926 0.156738C13.0266 2.78274 11.7886 5.92774 12.7526 8.96974C19.5276 6.43874 25.1066 11.5487 25.1066 11.5487C25.1066 11.5487 26.4596 8.04374 23.7846 4.70074C22.1766 2.69174 19.2936 0.716738 15.3926 0.156738" fill="#FAAD40"/>
</svg>
