<svg viewBox="0 0 26 19" fill="none" xmlns="http://www.w3.org/2000/svg"><path fill-rule="evenodd" clip-rule="evenodd" d="M15.595 15.352c-2.21-.896-3.19 1.448-4.387 1.867-2.736.96-4.866-3.017-4.866-3.017s.892-.346 2-1.162c1.68-1.24 2.37-2.006 3.839-2.48 1.193.14 2.933 2.45 3.414 4.792z" fill="#23B175"/><path fill-rule="evenodd" clip-rule="evenodd" d="M18.838 18.339c2.035-3.941 5.45-5.922 5.45-5.922s-1.752-1.65-4.77-2.467c-3.628-.98-6.092.01-6.092.01s2.604 1.326 3.39 5.659c.459 2.54 1.9 2.72 2.022 2.72" fill="#EC5956"/><path fill-rule="evenodd" clip-rule="evenodd" d="M14.062.025c-1.629-.091-3.403.061-5.327.54C3.198 1.951-2.304 7.841.995 12.417c3.003 3.942 7.578-1.401 10.723-3.002-1.224-3.147-.052-6.537 2.344-9.39" fill="#27A8E0"/><path fill-rule="evenodd" clip-rule="evenodd" d="M15.393.157c-2.366 2.626-3.604 5.77-2.64 8.813 6.775-2.531 12.354 2.579 12.354 2.579S26.46 8.044 23.785 4.7C22.177 2.69 19.294.717 15.393.157" fill="#FAAD40"/></svg>