<svg width="154" height="154" viewBox="0 0 154 154" fill="none" xmlns="http://www.w3.org/2000/svg">
<path fill-rule="evenodd" clip-rule="evenodd" d="M95.4728 57.8991C110.573 72.9995 110.572 97.4818 95.4728 112.581C80.3725 127.681 55.8901 127.683 40.7898 112.582C25.6894 97.4818 25.6905 72.9995 40.7908 57.8991C55.8901 42.7998 80.3725 42.7987 95.4728 57.8991Z" fill="#1E90FD"/>
<path fill-rule="evenodd" clip-rule="evenodd" d="M89.6314 63.7403C101.506 75.6148 101.506 94.8669 89.6314 106.741C77.7569 118.616 58.5058 118.615 46.6314 106.74C34.7569 94.8659 34.7558 75.6148 46.6303 63.7403C58.5048 51.8658 77.7569 51.8658 89.6314 63.7403Z" fill="white"/>
<path fill-rule="evenodd" clip-rule="evenodd" d="M83.9141 69.4575C92.6311 78.1745 92.6311 92.3069 83.9141 101.024C75.1971 109.741 61.0647 109.741 52.3477 101.024C43.6306 92.3069 43.6306 78.1745 52.3477 69.4575C61.0647 60.7405 75.1971 60.7405 83.9141 69.4575Z" fill="#1E90FD"/>
<path fill-rule="evenodd" clip-rule="evenodd" d="M78.1977 75.1743C83.7572 80.7338 83.7583 89.7475 78.1987 95.307C72.6382 100.868 63.6245 100.867 58.0649 95.307C52.5054 89.7475 52.5054 80.7348 58.066 75.1743C63.6255 69.6147 72.6382 69.6147 78.1977 75.1743Z" fill="white"/>
<path fill-rule="evenodd" clip-rule="evenodd" d="M72.4804 80.8911C74.8825 83.2931 74.8825 87.1881 72.4804 89.5902C70.0784 91.9922 66.1823 91.9933 63.7802 89.5912C61.3782 87.1892 61.3793 83.2931 63.7813 80.8911C66.1833 78.489 70.0784 78.489 72.4804 80.8911Z" fill="#1783FB"/>
<path fill-rule="evenodd" clip-rule="evenodd" d="M66.5295 83.4108L7.28328 71.5342L7.13178 71.6226L6.67094 73.9415C6.60781 74.1835 6.60781 74.1835 6.69829 74.3329L65.854 86.0601" fill="#1783FB"/>
<path fill-rule="evenodd" clip-rule="evenodd" d="M10.9198 73.8722L24.3515 76.5257L21.7916 69.4606L8.361 66.806L10.9198 73.8722Z" fill="#20B1FE"/>
<path fill-rule="evenodd" clip-rule="evenodd" d="M19.2324 82.0182L5.89019 79.5151L10.9205 73.8725L24.3522 76.526L19.2324 82.0182Z" fill="#20B1FE"/>
<path fill-rule="evenodd" clip-rule="evenodd" d="M70.4703 87.3521L82.348 146.599L82.2585 146.75L79.9407 147.212C79.6976 147.274 79.6976 147.274 79.5482 147.183L67.821 88.0276" fill="#1783FB"/>
<path fill-rule="evenodd" clip-rule="evenodd" d="M80.0112 142.962L77.3577 129.53L84.4229 132.09L87.0774 145.521L80.0112 142.962Z" fill="#20B1FE"/>
<path fill-rule="evenodd" clip-rule="evenodd" d="M71.8649 134.65L74.368 147.992L80.0106 142.962L77.3571 129.53L71.8649 134.65Z" fill="#20B1FE"/>
<mask id="mask0_0_562" style="mask-type:alpha" maskUnits="userSpaceOnUse" x="68" y="39" width="46" height="46">
<path fill-rule="evenodd" clip-rule="evenodd" d="M111.268 39.8018L113.417 41.9513L70.5861 84.7823L68.4366 82.6327L111.268 39.8018Z" fill="white"/>
</mask>
<g mask="url(#mask0_0_562)">
<path fill-rule="evenodd" clip-rule="evenodd" d="M68.6562 82.8524L111.163 39.906L111.339 39.8966L113.018 41.561C113.204 41.7262 113.204 41.7262 113.213 41.9019L70.6953 84.6726" fill="#1783FB"/>
</g>
<path fill-rule="evenodd" clip-rule="evenodd" d="M109.454 43.8762L99.7966 53.5802L97.9722 46.2909L107.631 36.5859L109.454 43.8762Z" fill="#20B1FE"/>
<path fill-rule="evenodd" clip-rule="evenodd" d="M107.11 55.276L116.778 45.7478L109.454 43.876L99.796 53.5799L107.11 55.276Z" fill="#20B1FE"/>
</svg>
