<svg width="135" height="135" viewBox="0 0 135 135" fill="none" xmlns="http://www.w3.org/2000/svg"><path fill-rule="evenodd" clip-rule="evenodd" d="M96.375 64.267l-.407.142-.001-.003-.01-.028-.005-.013.644-.214.012.002-.233.114zm-.448-.25l.002-.015.727.118-.195-.003-.538-.08.004-.02zm.806.104l.075-.039.172-.055.022.022-.209.075-.06-.003zm.134.034l.286.044.023.024-.468-.07.16.002zm8.746-34.585l-1.383-1.383c-9.449-9.449-24.823-9.45-34.271-.001l-2.286 2.285-2.14 2.14-3.613 3.614s4.288 3.514 6.661 2.102l-.001-.005c.344-.014.685-.08 1.01-.212 2.28 2.147 12.698 12.403 25.73 11.178-1.354 2.764-2.875 9.05.48 14.865a3.08 3.08 0 00-.26 1.074l-.067-.008c-1.413 2.372 2.101 6.66 2.101 6.66l3.629-3.629 2.124-2.124 2.286-2.286c9.45-9.448 9.449-24.821 0-34.27z" fill="#85C12F"/><path fill-rule="evenodd" clip-rule="evenodd" d="M98 67.337a3.05 3.05 0 00-4.859-.74l-6.148 6.147a3.047 3.047 0 00-.858 2.616 3.049 3.049 0 001.6 2.244 7.602 7.602 0 001.758.655c.367.088.75.107 1.125.055.36.115.738.163 1.117.14a7.593 7.593 0 004.91-2.207 7.568 7.568 0 001.356-8.91zM68.125 38.102a3.055 3.055 0 00-1.6-2.242 7.573 7.573 0 00-8.91 1.355 7.572 7.572 0 00-1.357 8.913 3.055 3.055 0 002.242 1.6 3.048 3.048 0 002.617-.86l6.148-6.148a3.051 3.051 0 00.86-2.618zm1.103 38.313a3.062 3.062 0 00-.987-2.18l-.077-.071a3.106 3.106 0 00-.44-.343 16.384 16.384 0 01-2.803-2.242l-2.637-2.637a16.416 16.416 0 01-2.302-2.895 3.052 3.052 0 00-4.742-.537l-6.276 6.277-.021.019a3.063 3.063 0 00-1.019 2.315l.113 8.557c.011.794.332 1.555.894 2.116l.034.035c.586.565 1.37.874 2.182.859l9.102-.171a3.05 3.05 0 002.1-.892l5.986-5.987a3.047 3.047 0 00.893-2.223z" fill="#85C12F"/><path fill-rule="evenodd" clip-rule="evenodd" d="M96.638 62.45a10.153 10.153 0 01-.416-1.078c-1.936-5.316-1.24-9.022-.532-10.94.013-.085.032-.176.062-.282.365-1.23-.814-1.4-.814-1.4l-.002-.005c-5.981-.789-11.199-2.968-15.158-5.16A44.462 44.462 0 0175.604 41c-2.44-1.68-3.813-2.956-3.813-2.956a3.054 3.054 0 00-4.157.15l-8.803 8.804c-7.002 7-7 18.394.002 25.397l2.637 2.637c7.001 7 18.394 7.002 25.396 0l9.155-9.155c.9-.9 1.146-2.268.617-3.426zm-51.33 32.606l5.92-2.688-1.308-8.608-8.637-1.315-2.494 6.091 6.519 6.52zm-6.52-6.52l-.131.321-15.979 11.541 10.787 10.786 11.551-15.996.291-.133-6.519-6.519z" fill="#85C12F"/><path fill-rule="evenodd" clip-rule="evenodd" d="M24.06 101.78L40.234 90.1l3.013-7.354-.344-13.588-8.566 11.293-11.377 20.23 1.1 1.099zm9.14 9.141l20.464-11.508 11.297-8.568-14.035-.46-7.175 3.257-11.67 16.159 1.12 1.12z" fill="#85C12F"/><path fill-rule="evenodd" clip-rule="evenodd" d="M49.645 94.683c.379 2.487 2.185 2.417 2.998 2.25l13.953-4.82-2.004-9.783-3.896 1.115-10.565.196-.13-9.959 2.42-4.376-10.856-2.223-4.707 13.624c-.12.368-.834 2.892 2.158 3.349l9.206 1.4 1.336 8.774c.031.13.06.276.087.453z" fill="#85C12F"/><mask id="mask0_0_1884" style="mask-type:alpha" maskUnits="userSpaceOnUse" x="0" y="51" width="52" height="52"><path fill-rule="evenodd" clip-rule="evenodd" d="M.562 78.282l26.904-26.904 23.818 23.818L24.38 102.1.562 78.282z" fill="#fff"/></mask><g mask="url(#mask0_0_1884)"><path fill-rule="evenodd" clip-rule="evenodd" d="M3.349 81.07l21.03 21.03 19.367-34.441-11.01-4.534-.015-.005c-4.264-2.05-13.627-3.371-21.662 4.663l-7.714 7.714c-.79.874-2.39 3.178.004 5.572z" fill="#85C12F"/></g><mask id="mask1_0_1884" style="mask-type:alpha" maskUnits="userSpaceOnUse" x="31" y="82" width="52" height="51"><path fill-rule="evenodd" clip-rule="evenodd" d="M82.057 106.212l-26.782 26.782-23.493-23.492 26.783-26.783 23.492 23.493z" fill="#fff"/></mask><g mask="url(#mask1_0_1884)"><path fill-rule="evenodd" clip-rule="evenodd" d="M57.965 130.303l7.808-7.807c8.134-8.134 6.608-17.719 4.658-21.677l-4.363-10.597-34.286 19.28 20.71 20.71c2.31 2.309 4.535.902 5.473.091z" fill="#85C12F"/></g><path fill-rule="evenodd" clip-rule="evenodd" d="M43.747 67.659l-11.01-4.534-.016-.006c-4.263-2.048-13.626-3.37-21.66 4.664l-7.716 7.715c-.79.872-2.39 3.177.005 5.571l.348.348L14.196 70.92c8.034-8.035 17.397-6.713 21.662-4.663l.015.005 7.031 2.897.843-1.499zm2.77 56.577l10.726-10.726a1.724 1.724 0 10-2.439-2.439l-10.726 10.726 2.439 2.439zM12.065 89.784L22.79 79.058a1.724 1.724 0 10-2.439-2.438L9.626 87.346l2.439 2.438z" fill="#85C12F"/><mask id="mask2_0_1884" style="mask-type:alpha" maskUnits="userSpaceOnUse" x="0" y="1" width="133" height="132"><path fill-rule="evenodd" clip-rule="evenodd" d="M.561 78.282l54.713 54.713 76.883-76.883L77.444 1.399.561 78.282z" fill="#fff"/></mask><g mask="url(#mask2_0_1884)"><path fill-rule="evenodd" clip-rule="evenodd" d="M62.57 61.904l8.153 8.152 7.035-7.035-8.153-8.152-7.034 7.035zM79.578 46.22l.703-.043c5.214 4.387 8.029 4.968 9.85 3.147 1.407-1.407 1.159-3.394-.828-5.381-1.945-1.944-5.088-3.102-8.773-3.311l1.325-9.6c5.048 0 10.304 1.615 15.063 6.374 6.083 6.083 7.033 13.655 1.571 19.117-5.214 5.214-10.924 3.973-16.635.498l-3.145 2.152-5.007-5.008 5.876-7.945z" fill="#fff"/></g></svg>