<svg width="90" height="103" viewBox="0 0 90 103" fill="none" xmlns="http://www.w3.org/2000/svg"><path fill-rule="evenodd" clip-rule="evenodd" d="M11.15 13.912A71.77 71.77 0 0114.737 8.8a1.53 1.53 0 012.424 1.865 68.697 68.697 0 00-3.435 4.893 1.53 1.53 0 01-2.578-1.646zm-5.77 11.07a71.335 71.335 0 012.642-5.662 1.529 1.529 0 112.711 1.414 68.158 68.158 0 00-2.527 5.418 1.528 1.528 0 01-2.494.496 1.53 1.53 0 01-.332-1.666zM1.631 36.888a72.183 72.183 0 011.614-6.035 1.53 1.53 0 012.917.918 68.846 68.846 0 00-1.545 5.778 1.529 1.529 0 01-2.986-.661zM.005 49.263C.096 47.19.28 45.098.55 43.04a1.53 1.53 0 013.033.399 69.104 69.104 0 00-.522 5.957 1.53 1.53 0 01-3.055-.133zM.538 61.73a72.708 72.708 0 01-.537-6.222 1.53 1.53 0 113.055-.13c.085 1.985.258 3.989.514 5.958a1.53 1.53 0 01-3.032.394zm2.68 12.189a72.082 72.082 0 01-1.606-6.036 1.53 1.53 0 012.987-.657 68.848 68.848 0 001.537 5.779 1.53 1.53 0 01-2.918.914zM7.98 85.457a71.156 71.156 0 01-2.634-5.665 1.529 1.529 0 112.827-1.166 68.154 68.154 0 002.52 5.42 1.53 1.53 0 01-2.713 1.41zm6.702 10.528a71.522 71.522 0 01-3.582-5.116 1.53 1.53 0 012.58-1.643 68.806 68.806 0 003.428 4.898 1.528 1.528 0 11-2.426 1.86z" fill="#F86703"/><mask id="mask0_0_2376" style="mask-type:alpha" maskUnits="userSpaceOnUse" x="20" y="92" width="11" height="11"><path fill-rule="evenodd" clip-rule="evenodd" d="M30.296 102.237h-9.978v-9.978h9.978v9.978z" fill="#fff"/></mask><g mask="url(#mask0_0_2376)"><path fill-rule="evenodd" clip-rule="evenodd" d="M20.766 101.789a1.527 1.527 0 002.162 0l6.92-6.92a1.529 1.529 0 10-2.163-2.161l-6.919 6.919a1.529 1.529 0 000 2.162z" fill="#F15A28"/></g><path fill-rule="evenodd" clip-rule="evenodd" d="M63.868 54.074l4.613 4.612a1.53 1.53 0 010 2.163L32.154 97.177a1.53 1.53 0 01-2.162 0l-4.613-4.614a1.529 1.529 0 010-2.162l36.327-36.327a1.527 1.527 0 012.162 0z" fill="#FFC105"/><path fill-rule="evenodd" clip-rule="evenodd" d="M84.05 33.892l4.613 4.612a1.53 1.53 0 010 2.163l-10.379 10.38a1.529 1.529 0 01-2.162 0l-4.614-4.614a1.529 1.529 0 010-2.162l10.38-10.379a1.527 1.527 0 012.162 0z" fill="#FFA608"/><path fill-rule="evenodd" clip-rule="evenodd" d="M19.84.03l11.533 2.307c.296.059.568.205.781.418l39.787 39.787a1.529 1.529 0 010 2.162l-9.226 9.225a1.528 1.528 0 01-2.163 0L20.766 14.143a1.537 1.537 0 01-.419-.781L18.041 1.829a1.53 1.53 0 011.8-1.799z" fill="#FFA608"/><path fill-rule="evenodd" clip-rule="evenodd" d="M25.38 9.53l39.786 39.787a1.529 1.529 0 102.162-2.163L27.541 7.368A1.529 1.529 0 0025.38 9.53z" fill="#F86703"/><path fill-rule="evenodd" clip-rule="evenodd" d="M19.84.03l11.533 2.307c.301.06.57.211.78.42L20.765 14.143c-.21-.21-.358-.48-.419-.781L18.041 1.829a1.53 1.53 0 011.8-1.799z" fill="#FFD1A9"/><path fill-rule="evenodd" clip-rule="evenodd" d="M19.84.03l3.883.776-4.905 4.906-.777-3.883a1.53 1.53 0 011.8-1.799zm59.02 43.665c4.729 4.729 4.729 12.425 0 17.154-4.73 4.73-12.425 4.73-17.154 0-4.73-4.729-4.73-12.425 0-17.154 4.729-4.73 12.425-4.73 17.154 0z" fill="#F86703"/><path fill-rule="evenodd" clip-rule="evenodd" d="M65.741 56.813a1.53 1.53 0 002.163-2.163 2.96 2.96 0 010-4.18 2.96 2.96 0 014.18 0 1.528 1.528 0 102.162-2.162 6.02 6.02 0 00-8.505 0 6.022 6.022 0 000 8.505z" fill="#fff"/></svg>