<svg width="104" height="104" viewBox="0 0 104 104" fill="none" xmlns="http://www.w3.org/2000/svg"><path fill-rule="evenodd" clip-rule="evenodd" d="M5.43 88.725a7.63 7.63 0 009.78 9.778" fill="#F7941E"/><path fill-rule="evenodd" clip-rule="evenodd" d="M41.891 86.912c4.994-3.268 10.516-5.709 16.333-7.279a27.517 27.517 0 0012.317-7.14c11.051-11.05 10.792-29.126-.776-39.848-10.678-9.896-27.394-9.744-37.9.332a27.533 27.533 0 00-7.59 12.832 55.63 55.63 0 01-7.244 16.244l24.86 24.86z" fill="#FFC105"/><path fill-rule="evenodd" clip-rule="evenodd" d="M42.534 69.386L34.547 61.4a3.33 3.33 0 00-4.71 0l-6.73 6.728 12.698 12.699 6.73-6.73a3.332 3.332 0 000-4.711z" fill="#F7941E"/><path fill-rule="evenodd" clip-rule="evenodd" d="M43.394 58.14L31.513 70.023a1.62 1.62 0 11-2.291-2.291l11.567-11.567L43.805 44.4a1.623 1.623 0 011.973-1.167 1.617 1.617 0 011.165 1.97L43.818 57.4c-.073.28-.219.537-.424.742zm16.138 1.99L47.77 63.144 36.203 74.711a1.621 1.621 0 01-2.292-2.29l11.881-11.882a1.64 1.64 0 01.744-.423l12.191-3.126a1.62 1.62 0 11.806 3.14z" fill="#fff"/><path fill-rule="evenodd" clip-rule="evenodd" d="M35.051 61.901l2.291 2.291-5.829 5.83a1.62 1.62 0 11-2.291-2.292l5.829-5.829zm6.981 6.981l-5.83 5.83a1.621 1.621 0 01-2.29-2.292l5.828-5.829 2.291 2.291z" fill="#fff"/><path fill-rule="evenodd" clip-rule="evenodd" d="M40.75 84.245L19.689 63.183a4.64 4.64 0 00-6.565 0l-.222.22a4.642 4.642 0 00-.616 5.796 4.64 4.64 0 00-5.796.616l-.22.221a4.642 4.642 0 000 6.565l.786.787c-1.76-.947-3.99-.699-5.474.786l-.221.22a4.642 4.642 0 000 6.565l17.614 17.614a4.642 4.642 0 006.565 0l.22-.221c1.485-1.484 1.733-3.715.786-5.473l.787.786a4.644 4.644 0 006.565 0l.22-.22a4.643 4.643 0 00.617-5.798 4.64 4.64 0 005.796-.616l.22-.22a4.644 4.644 0 000-6.566z" fill="#F15A28"/><mask id="mask0_0_2420" style="mask-type:alpha" maskUnits="userSpaceOnUse" x="82" y="39" width="22" height="11"><path fill-rule="evenodd" clip-rule="evenodd" d="M103.898 39.005V49.95H82.742V39.005h21.156z" fill="#fff"/></mask><g mask="url(#mask0_0_2420)"><path fill-rule="evenodd" clip-rule="evenodd" d="M83.797 48.89a3.608 3.608 0 011.774-6.073c4.582-1.013 9.17-2.24 13.635-3.645a3.61 3.61 0 012.167 6.884 169.611 169.611 0 01-14.242 3.809 3.607 3.607 0 01-3.334-.974z" fill="#F9CA55"/></g><path fill-rule="evenodd" clip-rule="evenodd" d="M75.83 31.736a3.61 3.61 0 01-1.667-6.104 162.344 162.344 0 009.71-10.242 3.609 3.609 0 015.45 4.732 170.081 170.081 0 01-10.141 10.7 3.606 3.606 0 01-3.351.915zm5.448 36.768a3.608 3.608 0 013.997-4.904c4.616.848 9.319 1.504 13.979 1.946a3.609 3.609 0 01-.682 7.186 169.983 169.983 0 01-14.602-2.034 3.605 3.605 0 01-2.692-2.194z" fill="#F9CA55"/><mask id="mask1_0_2420" style="mask-type:alpha" maskUnits="userSpaceOnUse" x="54" y="1" width="12" height="22"><path fill-rule="evenodd" clip-rule="evenodd" d="M54.967 1h10.946v21.157H54.967V1z" fill="#fff"/></mask><g mask="url(#mask1_0_2420)"><path fill-rule="evenodd" clip-rule="evenodd" d="M55.053 17.768a169.995 169.995 0 013.809-14.242 3.609 3.609 0 116.884 2.167A162.847 162.847 0 0062.1 19.328a3.609 3.609 0 01-7.047-1.56z" fill="#F9CA55"/></g><path fill-rule="evenodd" clip-rule="evenodd" d="M34.22 20.929a169.948 169.948 0 01-2.034-14.603 3.608 3.608 0 017.185-.681c.443 4.66 1.098 9.363 1.947 13.978a3.61 3.61 0 01-7.099 1.306z" fill="#F9CA55"/></svg>