<svg width="163" height="163" viewBox="0 0 163 163" fill="none" xmlns="http://www.w3.org/2000/svg"><path fill-rule="evenodd" clip-rule="evenodd" d="M55.499 119.308l-13.333 13.333c-2.646 2.646-6.671 2.949-8.947.674l-9.913-9.913c-2.275-2.275-1.973-6.302.673-8.948l13.333-13.333c2.646-2.646 6.672-2.948 8.948-.672l9.913 9.912c2.275 2.276 1.972 6.301-.674 8.947" fill="#2B4460"/><path fill-rule="evenodd" clip-rule="evenodd" d="M37.314 101.121l-12.995 12.995a7.75 7.75 0 001.262 1.68l15.245 15.244a7.751 7.751 0 001.68 1.263L55.5 119.308c2.647-2.646 2.95-6.672.673-8.948l-9.912-9.912c-2.275-2.275-6.301-1.973-8.947.673" fill="#2B4460"/><mask id="mask0_0_538" style="mask-type:alpha" maskUnits="userSpaceOnUse" x="55" y="106" width="40" height="40"><path fill-rule="evenodd" clip-rule="evenodd" d="M94.55 130.738l-14.777 14.777-23.988-23.988 14.777-14.777 23.988 23.988z" fill="#fff"/></mask><g mask="url(#mask0_0_538)"><path fill-rule="evenodd" clip-rule="evenodd" d="M73.465 109.654l18.181 18.181c1.604 1.603 1.392 4.415-.472 6.279l-1.412 1.412c-1.478 1.478-3.609 1.958-5.262 1.187l-24.789-11.572c-2.55-1.191-2.825-4.715-.547-6.993l8.022-8.022c1.864-1.864 4.676-2.076 6.28-.472" fill="#2B4460"/></g><path fill-rule="evenodd" clip-rule="evenodd" d="M67.186 110.126l-8.022 8.022c-2.278 2.278-2.002 5.802.547 6.993l3.066 1.431 13.803-13.803-3.115-3.115c-1.603-1.604-4.415-1.392-6.28.472" fill="#263F56"/><path fill-rule="evenodd" clip-rule="evenodd" d="M104.45 47.397c3.39 3.39 2.942 9.335-1 13.277-3.944 3.944-9.889 4.392-13.279 1.001-3.39-3.39-2.942-9.335 1.001-13.278 3.943-3.943 9.888-4.39 13.278-1" fill="#3EB5ED"/><path fill-rule="evenodd" clip-rule="evenodd" d="M93.324 46.707a11.652 11.652 0 00-2.152 1.69c-3.942 3.943-4.391 9.887-1 13.278 3.39 3.39 9.335 2.942 13.278-1a11.655 11.655 0 001.69-2.152L93.324 46.707z" fill="#2B4460"/><path fill-rule="evenodd" clip-rule="evenodd" d="M115.638 78.503l-40.37 24.337-21.657-21.657 19.912-44.795 42.115 42.115z" fill="#1E90FD"/><path fill-rule="evenodd" clip-rule="evenodd" d="M75.269 102.839l8.586-5.175c.418-2.756-.3-5.5-2.227-7.427L66.384 74.993c-2.348-2.348-5.908-2.903-9.227-1.788l-3.546 7.977L75.27 102.84z" fill="#fff"/><path fill-rule="evenodd" clip-rule="evenodd" d="M77.063 107.524L56.56 128.028c-4.068 4.068-10.261 4.536-13.76 1.037L27.556 113.82c-3.498-3.497-3.03-9.69 1.038-13.759l20.503-20.503c4.069-4.069 10.26-4.535 13.76-1.036L78.1 93.765c3.498 3.5 3.032 9.691-1.037 13.759" fill="#1E90FD"/><path fill-rule="evenodd" clip-rule="evenodd" d="M49.92 116.428c1.371 1.371 1.19 3.776-.404 5.37-1.595 1.595-3.999 1.776-5.37.404-1.372-1.372-1.19-3.775.404-5.37 1.594-1.594 3.998-1.776 5.37-.404" fill="#08A09C"/><path fill-rule="evenodd" clip-rule="evenodd" d="M50.182 116.69c1.226 1.226.928 3.514-.666 5.108-1.595 1.596-3.882 1.892-5.108.666-1.227-1.227-.93-3.513.666-5.108 1.594-1.594 3.881-1.893 5.108-.666" fill="#fff"/><path fill-rule="evenodd" clip-rule="evenodd" d="M60.58 105.769c1.37 1.371 1.19 3.776-.404 5.37-1.596 1.595-4 1.775-5.371.404-1.372-1.372-1.19-3.775.404-5.37 1.594-1.594 3.998-1.776 5.37-.404" fill="#08A09C"/><path fill-rule="evenodd" clip-rule="evenodd" d="M60.841 106.031c1.226 1.226.928 3.514-.666 5.108-1.595 1.595-3.882 1.892-5.108.666-1.227-1.227-.93-3.513.666-5.108 1.594-1.594 3.881-1.893 5.108-.666" fill="#fff"/><path fill-rule="evenodd" clip-rule="evenodd" d="M71.238 95.11c1.372 1.371 1.19 3.776-.403 5.37-1.595 1.596-4 1.777-5.372.405-1.371-1.372-1.19-3.776.406-5.37 1.594-1.595 3.998-1.777 5.37-.405" fill="#08A09C"/><path fill-rule="evenodd" clip-rule="evenodd" d="M71.5 95.372c1.226 1.226.928 3.514-.666 5.109-1.595 1.595-3.883 1.892-5.109.666-1.227-1.226-.928-3.514.667-5.109 1.594-1.594 3.882-1.893 5.108-.666" fill="#fff"/><path fill-rule="evenodd" clip-rule="evenodd" d="M63.029 89.24l-24.753 24.753c-.644.644-1.622.718-2.176.164l-2.05-2.05c-.553-.553-.48-1.532.164-2.176l24.753-24.753c.642-.643 1.623-.717 2.176-.164l2.05 2.05c.554.554.479 1.533-.164 2.176" fill="#3EB5ED"/><path fill-rule="evenodd" clip-rule="evenodd" d="M58.967 85.177L34.214 109.93c-.644.644-.717 1.623-.164 2.176l.744.744c-.554-.554-.48-1.532.164-2.176L59.71 85.921c.643-.643 1.623-.718 2.176-.164l-.743-.744c-.553-.552-1.534-.479-2.176.164" fill="#3EB5ED"/><path fill-rule="evenodd" clip-rule="evenodd" d="M118.144 79.229c-1.066 1.065-2.67 1.186-3.587.27L72.724 37.665c-.917-.916-.797-2.522.269-3.588 1.066-1.066 2.672-1.186 3.589-.27l41.834 41.834c.916.916.794 2.522-.272 3.588" fill="#2B4460"/><path fill-rule="evenodd" clip-rule="evenodd" d="M87.64 38.425l1.998-9.18-4.614 2.307 3.893-19.73.81 13.32 6.397-2.405-8.484 15.688zm17.236 6.126l5.951-7.83-4.844.032 12.463-17.018-5.612 13.107 6.34.716-14.298 10.993zm7.728 18.289l9.034-3.078-3.336-3.041 19.312-6.989-12.145 7.91 3.889 4.64-16.754.558z" fill="#3EB5ED"/></svg>