<svg width="42" height="40" viewBox="0 0 42 40" fill="none" xmlns="http://www.w3.org/2000/svg"><mask id="mask0_0_4149" style="mask-type:alpha" maskUnits="userSpaceOnUse" x="1" y="0" width="41" height="40"><path fill-rule="evenodd" clip-rule="evenodd" d="M41.238 40H1.223V0h40.015v40z" fill="#fff"/></mask><g mask="url(#mask0_0_4149)"><path fill-rule="evenodd" clip-rule="evenodd" d="M41.238 20c0 11.046-8.958 20-20.008 20-11.05 0-20.007-8.954-20.007-20S10.18 0 21.23 0s20.008 8.954 20.008 20z" fill="#3B5998"/></g><path fill-rule="evenodd" clip-rule="evenodd" d="M22.862 30.25v-9.784h3.285l.493-3.813h-3.778v-2.435c0-1.104.307-1.856 1.89-1.856l2.021-.001V8.95c-.35-.047-1.55-.15-2.944-.15-2.913 0-4.906 1.776-4.906 5.039v2.813h-3.294v3.813h3.294v9.784h3.939z" fill="#fff"/></svg>