<svg width="122" height="122" viewBox="0 0 122 122" fill="none" xmlns="http://www.w3.org/2000/svg"><mask id="mask0_0_1926" style="mask-type:alpha" maskUnits="userSpaceOnUse" x="1" y="1" width="120" height="120"><path fill-rule="evenodd" clip-rule="evenodd" d="M99.335 22.393l-21.07-21.07L1.21 78.38l21.07 21.07 21.07 21.069 77.056-77.056-21.07-21.07z" fill="#fff"/></mask><g mask="url(#mask0_0_1926)"><path fill-rule="evenodd" clip-rule="evenodd" d="M85.49 8.547l27.693 27.693c3.972 3.972 3.972 10.474-.001 14.447l-62.608 62.608c-3.972 3.972-10.475 3.973-14.447.001L8.433 85.603c-3.973-3.972-3.973-10.476 0-14.448L71.04 8.547c3.974-3.974 10.477-3.972 14.449 0z" fill="#85C12F"/></g><path fill-rule="evenodd" clip-rule="evenodd" d="M72.246 16.976l32.507 32.508a1.706 1.706 0 010 2.407l-52.974 52.974a1.708 1.708 0 01-2.409.002L16.863 72.359a1.708 1.708 0 010-2.408l52.975-52.975a1.706 1.706 0 012.408 0z" fill="#fff"/><path fill-rule="evenodd" clip-rule="evenodd" d="M91.51 22.995l7.225 7.225a1.707 1.707 0 010 2.407 1.708 1.708 0 01-2.409.001l-7.224-7.224a1.709 1.709 0 01.001-2.409 1.707 1.707 0 012.407 0zm-65.015 66.22l6.02 6.02c1.024 1.023 1.023 2.589 0 3.612-1.023 1.023-2.59 1.025-3.613 0l-6.02-6.019c-1.023-1.023-1.022-2.59.001-3.613.964-.964 2.59-1.023 3.613 0zm38.887-47.809a.986.986 0 01-.972.972.966.966 0 01-.958-.972c-.001-.519.426-.973.958-.972.518 0 .97.453.972.972zm.918-1.864a.965.965 0 11-1.93-.015.965.965 0 011.93.015zm-3.076 1.864a.988.988 0 01-.985.972c-.517 0-.943-.44-.944-.972 0-.519.427-.972.944-.972.534 0 .988.452.985.972zm2.158-3.795a.991.991 0 01-.972.987.968.968 0 01-.958-.987.962.962 0 01.958-.958c.52 0 .972.438.972.958zm-3.13 1.89c.003.52-.452.96-.984.959a.962.962 0 01-.945-.958c0-.531.427-.959.945-.959.533 0 .985.428.985.959zm.973-1.89a.99.99 0 01-.985.986c-.518.001-.944-.438-.944-.985a.96.96 0 01.944-.96c.533 0 .985.44.985.96zm8.081 9.724a.986.986 0 01-.972.972.966.966 0 01-.958-.972.973.973 0 01.958-.972c.517 0 .97.453.972.972zm.918-1.864a.965.965 0 11-1.93-.015.965.965 0 011.93.015zm-3.076 1.864a.988.988 0 01-.985.972c-.518 0-.944-.44-.945-.972.001-.519.427-.972.945-.972.533 0 .987.452.985.972zm2.158-3.795a.991.991 0 01-.972.987.968.968 0 01-.958-.987.962.962 0 01.958-.958c.52 0 .972.438.972.958zm-3.13 1.89c.003.52-.453.96-.985.959a.962.962 0 01-.945-.958c0-.531.428-.959.945-.959.534 0 .985.428.985.959zm.973-1.889a.99.99 0 01-.985.985c-.519.001-.945-.438-.945-.985a.96.96 0 01.946-.96c.531 0 .984.44.984.96zm8.359 9.996a.988.988 0 01-.972.973.966.966 0 01-.957-.973c-.001-.518.426-.972.957-.972a.999.999 0 01.972.972zm.919-1.864a.974.974 0 01-.959.959.965.965 0 11.959-.959zm-3.076 1.864a.988.988 0 01-.985.972c-.52 0-.945-.438-.945-.972-.001-.518.426-.972.945-.971.532-.001.985.451.985.971zm2.157-3.795a.99.99 0 01-.972.986.966.966 0 01-.957-.986.96.96 0 01.957-.957c.52 0 .972.437.972.957zm-3.129 1.891c.001.519-.454.958-.985.958a.962.962 0 01-.945-.958c0-.53.425-.958.945-.958.534 0 .985.427.985.958zm.972-1.89a.992.992 0 01-.984.985c-.52 0-.947-.438-.946-.986a.96.96 0 01.945-.958c.532.001.986.44.985.958zm8.473 10.112a.988.988 0 01-.973.973.966.966 0 01-.957-.973c0-.518.425-.971.956-.971.52 0 .974.454.974.971zm.918-1.864c0 .52-.44.96-.958.958a.963.963 0 01-.972-.958.96.96 0 01.972-.971c.518 0 .957.426.958.971zm-3.075 1.864a.99.99 0 01-.987.973c-.517 0-.943-.44-.943-.973 0-.517.425-.971.945-.971.533 0 .986.453.985.971zm2.156-3.794a.988.988 0 01-.972.985.968.968 0 01-.958-.985.962.962 0 01.958-.958c.52-.001.972.438.972.958zm-3.128 1.89c0 .52-.453.96-.985.958a.959.959 0 01-.001-1.915c.533 0 .986.426.986.957zm.97-1.89a.99.99 0 01-.982.985c-.52 0-.946-.44-.947-.985a.964.964 0 01.946-.96c.532.002.985.441.983.96z" fill="#54750C"/><path fill-rule="evenodd" clip-rule="evenodd" d="M52.092 72.146l-1.414 7.45-2.641-2.64 1.077-5.037-5.113 1-2.508-2.507 7.337-1.302 1.34-6.998 2.658 2.658-1.02 4.603 4.661-.962 2.508 2.508-6.885 1.227z" fill="#E5352D"/></svg>