<svg width="40" height="40" viewBox="0 0 40 40" fill="none" xmlns="http://www.w3.org/2000/svg"><circle cx="20" cy="20" r="20" fill="#DC4E41"/><path fill-rule="evenodd" clip-rule="evenodd" d="M14.553 21.625V18.84h7.672c.084.444.127.895.129 1.347 0 4.643-3.112 7.94-7.801 7.94a8.125 8.125 0 010-16.25A7.788 7.788 0 0119.997 14l-2.206 2.124a4.572 4.572 0 00-3.238-1.253 5.131 5.131 0 000 10.26 4.389 4.389 0 004.608-3.505h-4.608zm16.25-.464h3.482v-2.322h-3.482v-3.482H28.48v3.482H25v2.322h3.482v3.482h2.322v-3.482z" fill="#fff"/></svg>