<svg width="154" height="154" viewBox="0 0 154 154" fill="none" xmlns="http://www.w3.org/2000/svg"><path fill-rule="evenodd" clip-rule="evenodd" d="M95.473 57.9c15.1 15.1 15.099 39.582 0 54.681-15.1 15.1-39.583 15.102-54.683.001-15.1-15.1-15.1-39.582 0-54.683 15.1-15.1 39.583-15.1 54.683 0z" fill="#1E90FD"/><path fill-rule="evenodd" clip-rule="evenodd" d="M89.631 63.74c11.875 11.875 11.875 31.127 0 43.001-11.874 11.875-31.125 11.874-43-.001-11.874-11.874-11.875-31.125 0-43 11.874-11.874 31.126-11.874 43 0z" fill="#fff"/><path fill-rule="evenodd" clip-rule="evenodd" d="M83.914 69.457c8.717 8.718 8.717 22.85 0 31.567-8.717 8.717-22.85 8.717-31.566 0-8.717-8.717-8.717-22.85 0-31.567 8.717-8.716 22.85-8.716 31.566 0z" fill="#1E90FD"/><path fill-rule="evenodd" clip-rule="evenodd" d="M78.198 75.174c5.56 5.56 5.56 14.573 0 20.133-5.56 5.561-14.573 5.56-20.133 0-5.56-5.56-5.56-14.572.001-20.133 5.56-5.56 14.572-5.56 20.132 0z" fill="#fff"/><path fill-rule="evenodd" clip-rule="evenodd" d="M72.48 80.891a6.151 6.151 0 11-8.7 8.7 6.151 6.151 0 018.7-8.7z" fill="#1783FB"/><path fill-rule="evenodd" clip-rule="evenodd" d="M66.53 83.41L7.282 71.535l-.151.089-.461 2.319c-.063.242-.063.242.027.39L65.854 86.06" fill="#1783FB"/><path fill-rule="evenodd" clip-rule="evenodd" d="M10.92 73.872l13.432 2.654-2.56-7.065L8.36 66.806l2.559 7.066zm8.312 8.146L5.89 79.515l5.03-5.642 13.432 2.653-5.12 5.492z" fill="#20B1FE"/><path fill-rule="evenodd" clip-rule="evenodd" d="M70.47 87.352L82.348 146.6l-.09.151-2.317.462c-.243.062-.243.062-.393-.029L67.821 88.028" fill="#1783FB"/><path fill-rule="evenodd" clip-rule="evenodd" d="M80.011 142.962l-2.653-13.432 7.065 2.56 2.654 13.431-7.066-2.559z" fill="#20B1FE"/><path fill-rule="evenodd" clip-rule="evenodd" d="M71.865 134.65l2.503 13.342 5.643-5.03-2.654-13.432-5.492 5.12z" fill="#20B1FE"/><mask id="mask0_0_562" style="mask-type:alpha" maskUnits="userSpaceOnUse" x="68" y="39" width="46" height="46"><path fill-rule="evenodd" clip-rule="evenodd" d="M111.268 39.802l2.149 2.15-42.83 42.83-2.15-2.15 42.831-42.83z" fill="#fff"/></mask><g mask="url(#mask0_0_562)"><path fill-rule="evenodd" clip-rule="evenodd" d="M68.656 82.852l42.507-42.946.176-.01 1.679 1.665c.186.165.186.165.195.34L70.695 84.674" fill="#1783FB"/></g><path fill-rule="evenodd" clip-rule="evenodd" d="M109.454 43.876l-9.657 9.704-1.825-7.29 9.659-9.704 1.823 7.29z" fill="#20B1FE"/><path fill-rule="evenodd" clip-rule="evenodd" d="M107.11 55.276l9.668-9.528-7.324-1.872-9.658 9.704 7.314 1.696z" fill="#20B1FE"/></svg>