<svg width="149" height="149" viewBox="0 0 149 149" fill="none" xmlns="http://www.w3.org/2000/svg"><path fill-rule="evenodd" clip-rule="evenodd" d="M55.47 26.287l-2.158 2.158a.939.939 0 000 1.327l2.158 2.158a.94.94 0 001.328 0l2.158-2.158a.94.94 0 000-1.327l-2.158-2.158a.939.939 0 00-1.328 0zm6.64 6.639l-2.159 2.158a.938.938 0 000 1.326l2.157 2.158a.939.939 0 001.328 0l2.158-2.158a.939.939 0 000-1.327l-2.158-2.158a.939.939 0 00-1.327 0zm6.637 6.638l-2.158 2.158a.939.939 0 000 1.327l2.157 2.157a.939.939 0 001.328 0l2.158-2.158a.939.939 0 000-1.327l-2.157-2.157a.939.939 0 00-1.328 0zm6.638 6.638l-2.158 2.158a.939.939 0 000 1.327l2.158 2.158a.94.94 0 001.328 0l2.158-2.158a.94.94 0 000-1.327l-2.158-2.158a.939.939 0 00-1.328 0zM43.686 77.9l-2.157 2.157a.939.939 0 000 1.327l2.158 2.158a.94.94 0 001.328 0l2.157-2.157a.94.94 0 00.001-1.328L45.015 77.9a.94.94 0 00-1.329 0zm38.337-25.06l-2.158 2.158a.94.94 0 00.001 1.328l2.157 2.157a.939.939 0 001.328 0l2.158-2.158a.939.939 0 000-1.327l-2.157-2.157a.94.94 0 00-1.329-.001zM50.324 84.539l-2.157 2.156a.94.94 0 00.001 1.33l2.157 2.156a.939.939 0 001.328 0l2.157-2.157a.94.94 0 00.001-1.329l-2.157-2.156a.94.94 0 00-1.33 0zm-10.62-36.346c-8.63-8.63 1.825-16.429 1.825-16.429L54.474 18.82 92.81 57.157 52.649 96.986 41.863 86.198C40.285 84.62 32.9 79.89 41.86 70.93c8.962-8.962 6.473-14.107-2.157-22.737z" fill="#4CC7FC"/><mask id="mask0_0_604" style="mask-type:alpha" maskUnits="userSpaceOnUse" x="0" y="0" width="149" height="148"><path fill-rule="evenodd" clip-rule="evenodd" d="M.74 72.405l75.531 75.53 72.248-72.247L72.989.158.74 72.405z" fill="#fff"/></mask><g mask="url(#mask0_0_604)" fill-rule="evenodd" clip-rule="evenodd"><path d="M47.006 98.976l8.463 8.464 46.469-46.47-8.463-8.463-46.47 46.47z" fill="#0C64FD"/><path d="M112.56 55.33a4.693 4.693 0 000 6.637l14.937 14.937a4.693 4.693 0 006.637 0l4.481-4.481a4.693 4.693 0 000-6.637l-14.937-14.937a4.693 4.693 0 00-6.637 0l-4.481 4.48z" fill="#3EB5ED"/><path d="M50.602 109.877l27.66 27.659 53.108-53.108-27.66-27.66-53.108 53.109z" fill="#20B1FE"/><path d="M129.488 71.04a1.878 1.878 0 002.654 2.655l3.873-3.873a1.875 1.875 0 000-2.653 1.876 1.876 0 00-2.654-.001l-3.873 3.872zm-4.426-4.425a1.88 1.88 0 002.656 2.656l3.873-3.873a1.877 1.877 0 00-2.656-2.656l-3.873 3.873zm-4.315-4.315a1.877 1.877 0 102.655 2.656l3.873-3.873a1.877 1.877 0 00-2.655-2.656l-3.873 3.873zm-4.757-4.758a1.877 1.877 0 102.655 2.656l3.873-3.873a1.875 1.875 0 00-.001-2.654 1.876 1.876 0 00-2.654-.002l-3.873 3.873z" fill="#4BC9EF"/><path d="M50.602 109.877l13.94 13.939 53.108-53.108-13.94-13.94-53.108 53.109z" fill="#20B1FE"/><path d="M44.407 109.433a4.693 4.693 0 00.001 6.638l28.545 28.545a4.694 4.694 0 006.637 0l1.328-1.328a4.694 4.694 0 000-6.638l-28.544-28.545a4.694 4.694 0 00-6.639 0l-1.328 1.328zm58.417-58.418a4.696 4.696 0 000 6.64l28.545 28.544a4.694 4.694 0 006.638-.001l1.328-1.328a4.693 4.693 0 000-6.637L110.79 49.69a4.693 4.693 0 00-6.638-.001l-1.328 1.327z" fill="#1E90FD"/></g></svg>