<svg width="98" height="29" viewBox="0 0 98 29" fill="none" xmlns="http://www.w3.org/2000/svg"><path fill-rule="evenodd" clip-rule="evenodd" d="M15.595 15.352c-2.21-.896-3.19 1.448-4.387 1.867-2.736.96-4.866-3.017-4.866-3.017s.892-.346 2-1.162c1.68-1.24 2.37-2.006 3.839-2.48 1.193.14 2.933 2.45 3.414 4.792z" fill="#23B175"/><path fill-rule="evenodd" clip-rule="evenodd" d="M18.838 18.339c2.035-3.941 5.45-5.922 5.45-5.922s-1.752-1.65-4.77-2.467c-3.628-.98-6.092.01-6.092.01s2.604 1.326 3.39 5.659c.459 2.54 1.9 2.72 2.022 2.72z" fill="#EC5956"/><path fill-rule="evenodd" clip-rule="evenodd" d="M14.062.025c-1.629-.091-3.403.061-5.327.54C3.198 1.951-2.304 7.841.995 12.417c3.003 3.942 7.578-1.401 10.723-3.002-1.224-3.147-.052-6.537 2.344-9.39z" fill="#27A8E0"/><path fill-rule="evenodd" clip-rule="evenodd" d="M15.393.157c-2.366 2.626-3.604 5.77-2.64 8.813 6.775-2.531 12.354 2.579 12.354 2.579S26.46 8.044 23.785 4.7C22.177 2.69 19.294.717 15.393.157z" fill="#FAAD40"/><path fill-rule="evenodd" clip-rule="evenodd" d="M34.556 8.97v3.85c.354.042.954.103 1.685.103 1.727 0 2.665-.726 2.665-2.1 0-1.229-.938-1.853-2.54-1.853h-1.81zm0-5.909v3.682h1.725c1.187 0 2.165-.6 2.165-1.933 0-1.187-.915-1.81-2.29-1.81-.582 0-1.143.021-1.6.061zM31.994.71c.814-.04 2.75-.103 4.204-.103 3.475 0 4.788 1.582 4.788 3.6 0 1.663-.834 2.726-2.08 3.308v.041c1.433.355 2.558 1.456 2.558 3.391 0 2.997-2.329 4.372-5.412 4.372-1.332 0-3.2-.043-4.058-.105V.71zM43.29 15.233V5.87h2.391v5.93l4.37-5.93h2.393v9.363h-2.393V9.305l-4.37 5.928H43.29zm16.796-4.911l4.036 4.911h-3.119l-3.707-4.723 3.372-4.64h3.018l-3.6 4.452zm-5.264 4.911h2.392V5.87h-2.392v9.363zm10.43 0V5.87h2.391v5.93l4.373-5.93h2.391v9.363h-2.391V9.305l-4.373 5.928h-2.391zm16.882 0c-1.373 3.352-2.248 4.162-3.621 4.162-.853 0-1.477-.334-2.02-.726l.772-1.813c.249.146.603.334.976.334.604 0 1.039-.478 1.436-1.456l.209-.5-4.33-9.364h2.872l2.186 5.12c.19.457.314.894.458 1.353.082-.437.167-.896.332-1.375L83.09 5.87h2.726l-3.683 9.363zm4.831-9.363h2.163l3.183 3.913 3.018-3.913h2.103v9.363h-2.396v-5.72l-2.764 3.495h-.064l-2.851-3.495v5.72h-2.392V5.87zM.266 22.33h4.319v.602h-1.84v4.658h-.64v-4.658H.266v-.601zm6.194.601v2.027c.256.024.504.04.767.04.773 0 1.24-.399 1.24-1.06 0-.624-.376-1.022-1.21-1.022-.21 0-.549.007-.797.015zm-.638 4.658V22.33c.292 0 1.044-.015 1.374-.015 1.502 0 1.946.811 1.946 1.63 0 .856-.609 1.653-1.893 1.653-.21 0-.526-.008-.789-.03v2.021h-.638zm4.858-5.259h2.967v.602h-2.328v1.697h2.103v.6h-2.103v1.759h2.403v.602H10.68v-5.26zm8.226 2.878h-2.892v2.382h-.639v-5.26h.639v2.276h2.892V22.33h.638v5.259h-.638v-2.382zm3.482.188h1.893l-.947-2.247-.946 2.247zm.691-3.096h.548l2.261 5.29h-.684l-.674-1.594h-2.397l-.67 1.593h-.645L23.08 22.3zm7.863 2.54l2.21 2.75h-.745l-2.162-2.743 2.08-2.516h.743l-2.125 2.509zm-1.473 2.75h.64v-5.26h-.64v5.26zm-2.95-5.26h.744l2.08 2.517-2.163 2.743h-.744l2.209-2.743-2.127-2.516zm7.946 0h2.967v.602h-2.33v1.697h2.104v.6h-2.103v1.759h2.404v.602h-3.042v-5.26zm5.331.601v2.027c.255.024.503.04.766.04.773 0 1.24-.399 1.24-1.06 0-.624-.376-1.022-1.21-1.022-.21 0-.549.007-.796.015zm-.64 4.658V22.33c.294 0 1.045-.015 1.375-.015 1.503 0 1.946.811 1.946 1.63 0 .856-.609 1.653-1.892 1.653-.21 0-.526-.008-.789-.03v2.021h-.64z" fill="#333"/><mask id="mask0_0_4066" style="mask-type:alpha" maskUnits="userSpaceOnUse" x="0" y="0" width="98" height="29"><path fill-rule="evenodd" clip-rule="evenodd" d="M0 28.565h97.866V0H0v28.565z" fill="#fff"/></mask><g mask="url(#mask0_0_4066)" fill-rule="evenodd" clip-rule="evenodd" fill="#333"><path d="M48.146 27.59h.639v-5.259h-.64v5.26zm-3.493-2.699v2.09c.203.007.39.022.63.022.865 0 1.339-.376 1.339-1.12 0-.668-.467-1.037-1.314-1.037-.173 0-.392.016-.655.045zm0-.608c.286-.022.527-.037.7-.037 1.32 0 1.945.631 1.945 1.623 0 1.104-.78 1.735-2.088 1.735-.45 0-.887-.014-1.194-.014v-5.259h.637v1.952zm8.742 2.705h2.666v-4.057h-1.839l-.068.94c-.127 1.81-.564 2.877-.759 3.117zm-1.27 0h.564c.217-.27.752-1.404.863-3.605l.054-1.052h3.095v4.657h.714v1.577h-.602v-.975h-4.086v.975h-.602v-1.577zm9.867-4.057h-1.907l-.09.992c-.309 3.343-1.015 3.772-1.84 3.666l.007-.639c.376.038 1.006-.15 1.246-3.568l.075-1.052h3.148v5.26h-.639v-4.66zm5.054 2.103v-2.103c-.173-.007-.487-.022-.713-.022-.819 0-1.254.48-1.254 1.104 0 .556.45.946.908 1.021h1.06zm0 .603h-.983l-1.36 1.953h-.72l1.456-2.067c-.54-.218-1.037-.72-1.037-1.472 0-.947.631-1.743 2.05-1.743.354 0 .925.023 1.233.023v5.26h-.639v-1.954zm4.655-3.307h.646l1.975 2.697 1.893-2.696h.608v5.259h-.639v-4.252l-1.862 2.613h-.097l-1.885-2.592v4.23h-.639v-5.258zm9.344 4.733c1.202 0 2.005-.916 2.005-2.104 0-1.224-.878-2.103-2.005-2.103-1.143 0-2.006.88-2.006 2.103 0 1.194.88 2.104 2.006 2.104zm0-4.808c1.524 0 2.682 1.104 2.682 2.704 0 1.562-1.158 2.705-2.682 2.705-1.525 0-2.682-1.105-2.682-2.705 0-1.525 1.12-2.704 2.682-2.704zm3.732 4.582l.354-.428c.337.4.9.654 1.33.654.682 0 1.193-.354 1.193-1.007 0-.519-.376-.858-1.029-.858h-.609V24.6h.563a.88.88 0 00.872-.888c0-.569-.413-.855-.953-.855-.519 0-.88.21-1.196.585l-.375-.42c.353-.458.954-.766 1.638-.766.908 0 1.525.503 1.525 1.397 0 .443-.249.94-.759 1.202v.022c.638.121.961.64.961 1.24 0 .97-.832 1.547-1.794 1.547-.805 0-1.443-.405-1.72-.826zm5.203-4.507h2.93v.602h-2.291v4.658h-.638v-5.26zm4.386 3.066h1.895l-.947-2.247-.948 2.247zm.69-3.096h.55l2.26 5.29h-.683l-.675-1.594H94.11l-.668 1.593h-.646l2.26-5.289z"/></g></svg>