<svg width="42" height="40" viewBox="0 0 42 40" fill="none" xmlns="http://www.w3.org/2000/svg"><mask id="mask0_0_4154" style="mask-type:alpha" maskUnits="userSpaceOnUse" x="0" y="0" width="41" height="40"><path fill-rule="evenodd" clip-rule="evenodd" d="M40.86 40H.847V0H40.86v40z" fill="#fff"/></mask><g mask="url(#mask0_0_4154)"><path fill-rule="evenodd" clip-rule="evenodd" d="M40.86 20c0 11.046-8.957 20-20.007 20S.846 31.047.846 20 9.803 0 20.853 0s20.008 8.954 20.008 20z" fill="#1C8DE2"/></g><path fill-rule="evenodd" clip-rule="evenodd" d="M20.652 14.626c1.425 0 2.766.63 3.75 1.617v.003c0-.472.318-.83.76-.83h.112c.693 0 .835.654.835.86l.003 7.362c-.048.481.498.73.8.421 1.183-1.215 2.596-6.244-.735-9.157-3.105-2.718-7.272-2.27-9.487-.743-2.356 1.623-3.862 5.218-2.399 8.595 1.597 3.682 6.163 4.78 8.878 3.684 1.374-.554 2.009 1.304.582 1.91-2.157.918-8.16.826-10.965-4.03-1.895-3.28-1.794-9.048 3.23-12.039 3.845-2.286 8.915-1.653 11.97 1.537 3.195 3.336 3.01 9.583-.107 12.01-1.412 1.104-3.509.03-3.496-1.577l-.014-.526a5.246 5.246 0 01-3.717 1.544c-2.817 0-5.294-2.477-5.294-5.291 0-2.843 2.477-5.35 5.294-5.35zm3.545 5.146c-.107-2.062-1.637-3.3-3.486-3.3h-.07c-2.133 0-3.316 1.676-3.316 3.58 0 2.133 1.432 3.48 3.309 3.48 2.092 0 3.467-1.531 3.567-3.344l-.004-.416z" fill="#FCA930"/></svg>