<svg width="102" height="103" viewBox="0 0 102 103" fill="none" xmlns="http://www.w3.org/2000/svg"><path fill-rule="evenodd" clip-rule="evenodd" d="M58.153 32.81a8.942 8.942 0 01-12.646 0 8.94 8.94 0 010-12.646 8.94 8.94 0 0112.646 0 8.941 8.941 0 010 12.646zm8.644-17.012l-4.215-4.216-4.075 2.36a14.091 14.091 0 00-2.453-1.019l-1.212-4.547H48.88l-1.206 4.523c-.854.26-1.69.599-2.492 1.024l-4.042-2.341-4.216 4.216 2.34 4.042a14.18 14.18 0 00-1.024 2.492l-4.522 1.206v5.961l4.547 1.212c.26.841.598 1.663 1.019 2.453l-2.36 4.075 4.216 4.216 4.098-2.374c.78.408 1.59.734 2.417.988l1.225 4.592h5.96l1.232-4.617a14.096 14.096 0 002.38-.98l4.129 2.391 4.215-4.216-2.39-4.128c.404-.768.726-1.567.98-2.381l4.616-1.231v-5.961l-4.591-1.224a14.106 14.106 0 00-.988-2.417l2.373-4.099z" fill="#F7941E"/><path fill-rule="evenodd" clip-rule="evenodd" d="M69.632 75.067c-4.761 4.762-12.483 4.762-17.245 0-4.761-4.763-4.761-12.483 0-17.245 4.763-4.764 12.484-4.764 17.245 0 4.762 4.761 4.762 12.481 0 17.245zM81.42 51.869l-5.748-5.748-5.553 3.215a19.132 19.132 0 00-3.35-1.395l-1.65-6.193h-8.13l-1.642 6.163a19.29 19.29 0 00-3.4 1.4l-5.511-3.19-5.748 5.747 3.19 5.511a19.218 19.218 0 00-1.4 3.4l-6.162 1.642v8.13l6.193 1.651a19.26 19.26 0 001.393 3.35l-3.215 5.553 5.748 5.748 5.589-3.235a19.215 19.215 0 003.297 1.35l1.669 6.257h8.129l1.675-6.286a19.193 19.193 0 003.25-1.345l5.628 3.26 5.748-5.748-3.258-5.63a19.393 19.393 0 001.344-3.248l6.287-1.677v-8.13l-6.257-1.667a19.29 19.29 0 00-1.352-3.297l3.236-5.589z" fill="#F86703"/><path fill-rule="evenodd" clip-rule="evenodd" d="M29.169 61.885a7.234 7.234 0 11-8.593-11.64 7.234 7.234 0 018.593 11.64zm8.963-12.566l-2.862-3.88-3.545 1.396a11.275 11.275 0 00-1.84-1.11l-.42-3.783-4.77-.719-1.509 3.473c-.715.104-1.424.276-2.116.518l-2.951-2.359-3.88 2.864 1.384 3.516c-.435.59-.808 1.217-1.12 1.87l-3.761.42-.72 4.767 3.492 1.518c.107.704.277 1.402.519 2.085l-2.378 2.974 2.864 3.88 3.565-1.404c.573.42 1.183.778 1.814 1.081l.425 3.82 4.768.72 1.541-3.545c.682-.105 1.36-.266 2.022-.498l3.015 2.41 3.88-2.864-1.414-3.59c.416-.565.769-1.165 1.07-1.786l3.842-.429.718-4.768-3.526-1.532a11.379 11.379 0 00-.498-2.053l2.392-2.992z" fill="#F15A28"/><mask id="mask0_0_2335" style="mask-type:alpha" maskUnits="userSpaceOnUse" x="0" y="1" width="102" height="102"><path fill-rule="evenodd" clip-rule="evenodd" d="M101.678 1v101.671H0V1.001h101.678z" fill="#fff"/></mask><g mask="url(#mask0_0_2335)"><path fill-rule="evenodd" clip-rule="evenodd" d="M19.641 13.902a.559.559 0 01-.062.057 49.818 49.818 0 00-3.46 3.152l-.57.577c-.344.295-.885.353-1.229.017a.868.868 0 01-.017-1.23l.586-.594a51.654 51.654 0 013.583-3.261.867.867 0 011.223.116.867.867 0 01-.054 1.166zM8.721 26.518a.868.868 0 01-1.358-1.065 50.409 50.409 0 013.22-4.684.87.87 0 111.376 1.064 48.818 48.818 0 00-3.11 4.52.882.882 0 01-.129.165zm20.256-18.72a.831.831 0 01-.224.165 48.923 48.923 0 00-4.756 2.74.869.869 0 01-1.202-.252.863.863 0 01.251-1.203 50.506 50.506 0 014.927-2.841.868.868 0 011.004 1.392zm-24.94 28.84a.864.864 0 01-.889.209.866.866 0 01-.55-1.098 51.406 51.406 0 012.091-5.284.868.868 0 011.154-.424c.435.2.627.716.425 1.153a50.061 50.061 0 00-2.022 5.104.851.851 0 01-.209.34zM39.441 3.93a.852.852 0 01-.406.23 48.487 48.487 0 00-5.248 1.61.868.868 0 01-1.117-.514.865.865 0 01.515-1.116 50.525 50.525 0 015.434-1.67.868.868 0 01.822 1.46zM1.721 47.543a.871.871 0 01-.7.252.873.873 0 01-.78-.952 52.15 52.15 0 01.866-5.613.87.87 0 111.701.359 50.632 50.632 0 00-.836 5.424.865.865 0 01-.25.53zm48.78-45.06a.861.861 0 01-.598.256 49.995 49.995 0 00-5.474.407.867.867 0 01-.975-.75.865.865 0 01.75-.973A50.795 50.795 0 0149.87 1a.869.869 0 01.63 1.483zM1.871 58.698a.867.867 0 01-1.478-.506A51.922 51.922 0 010 52.52a.876.876 0 01.86-.883.873.873 0 01.881.86c.025 1.823.151 3.668.38 5.477a.873.873 0 01-.25.723zM61.607 3.512a.867.867 0 01-.789.238 49.818 49.818 0 00-5.428-.811.872.872 0 01-.787-.945.871.871 0 01.946-.786c1.884.174 3.774.456 5.62.838a.87.87 0 01.438 1.466zM4.484 69.542a.867.867 0 01-1.432-.319 51.139 51.139 0 01-1.64-5.441.87.87 0 111.692-.407c.428 1.778.96 3.545 1.582 5.256.12.329.03.68-.202.912zm67.723-62.57a.867.867 0 01-.974.176 49.164 49.164 0 00-5.113-1.992.87.87 0 11.538-1.654 50.808 50.808 0 015.295 2.065.867.867 0 01.254 1.405zM9.447 79.534a.87.87 0 01-1.345-.142 50.95 50.95 0 01-2.813-4.943.871.871 0 011.559-.773 48.692 48.692 0 002.714 4.77.87.87 0 01-.116 1.088zm72.318-66.821a.872.872 0 01-1.143.075 48.292 48.292 0 00-4.537-3.083.871.871 0 01-.298-1.195.88.88 0 011.195-.297 51.123 51.123 0 014.7 3.192.872.872 0 01.083 1.308zM16.508 88.166a.868.868 0 01-1.222.007l-.39-.384a50.99 50.99 0 01-3.447-3.806c-.307-.373-.25-.962.121-1.224a.868.868 0 011.223.122 50.126 50.126 0 003.325 3.67l.382.378a.867.867 0 01.015 1.23l-.007.007zm74.006-66.898a.871.871 0 01-1.295-.069 50.149 50.149 0 00-4.427-4.84.87.87 0 01-.028-1.23l.014-.013a.868.868 0 011.215-.015 51.842 51.842 0 014.585 5.01.871.871 0 01-.064 1.157zM25.29 95.034a.869.869 0 01-1.07.126 50.717 50.717 0 01-4.664-3.246.867.867 0 01-.148-1.221c.293-.341.842-.445 1.221-.147a49.374 49.374 0 004.504 3.133.872.872 0 01.157 1.355zm71.174-64.328a.872.872 0 01-1.398-.237 49.485 49.485 0 00-2.664-4.8.871.871 0 011.472-.929 51.16 51.16 0 012.76 4.972.871.871 0 01-.17.994zm-61.08 69.069a.866.866 0 01-.892.21 49.893 49.893 0 01-5.273-2.124.868.868 0 01-.416-1.157.866.866 0 011.156-.416 49.108 49.108 0 005.088 2.049.87.87 0 01.337 1.438zm64.771-58.542a.867.867 0 01-1.46-.421 49.626 49.626 0 00-1.524-5.273.867.867 0 01.532-1.108c.453-.16.95.08 1.107.533a50.486 50.486 0 011.578 5.46.865.865 0 01-.233.809zM46.279 102.15a.863.863 0 01-.704.25 50.863 50.863 0 01-5.609-.898.87.87 0 01.37-1.701c1.773.388 3.597.679 5.418.87a.87.87 0 01.525 1.479zm55.144-49.835a.863.863 0 01-.613.254.866.866 0 01-.87-.867 49.69 49.69 0 00-.32-5.48.88.88 0 01.765-.964.874.874 0 01.963.767c.216 1.876.326 3.784.33 5.674a.86.86 0 01-.255.616zm-43.99 49.745a.868.868 0 01-.51.25 50.976 50.976 0 01-5.673.361.869.869 0 01-.876-.863.868.868 0 01.862-.876 49.337 49.337 0 005.478-.351.868.868 0 01.719 1.479zm42.782-38.658a.87.87 0 01-1.464-.804c.398-1.777.7-3.597.897-5.413a.868.868 0 01.958-.774.874.874 0 01.773.96 51.457 51.457 0 01-.93 5.606.863.863 0 01-.234.425zM68.289 99.507a.859.859 0 01-.323.205 51.807 51.807 0 01-5.452 1.609.87.87 0 11-.399-1.694 49.948 49.948 0 005.267-1.552.867.867 0 011.111.526.864.864 0 01-.204.906zm28.29-25.563a.868.868 0 01-1.4-.987 49.746 49.746 0 002.08-5.081.866.866 0 011.103-.538.867.867 0 01.538 1.104 51.496 51.496 0 01-2.148 5.26.873.873 0 01-.173.242zM78.31 94.6a.818.818 0 01-.147.118 50.916 50.916 0 01-4.957 2.786.87.87 0 01-.764-1.562 49.664 49.664 0 004.786-2.69.868.868 0 011.082 1.348zm12.37-11.191a.87.87 0 01-1.295-1.156 48.997 48.997 0 003.16-4.486.854.854 0 011.198-.278c.407.255.532.79.277 1.197a51.306 51.306 0 01-3.27 4.648c-.024.026-.045.05-.07.075zm-3.7 4.18l-.192.192a51.637 51.637 0 01-4.017 3.618.87.87 0 01-1.223-.13.856.856 0 01.13-1.223 49.447 49.447 0 003.881-3.494l.192-.192a.868.868 0 111.23 1.229z" fill="#FFA608"/></g></svg>