<svg width="138" height="137" viewBox="0 0 138 137" fill="none" xmlns="http://www.w3.org/2000/svg"><mask id="mask0_0_1915" style="mask-type:alpha" maskUnits="userSpaceOnUse" x="2" y="2" width="134" height="135"><path fill-rule="evenodd" clip-rule="evenodd" d="M135.946 78.986L59.169 2.209 2.085 59.292l76.777 76.778 57.084-57.084z" fill="#fff"/></mask><g mask="url(#mask0_0_1915)"><path fill-rule="evenodd" clip-rule="evenodd" d="M133.733 76.772a3.127 3.127 0 01.001 4.426l-17.589 17.589-1.327-1.328-16.245 16.245 1.309 1.346-18.808 18.808a3.13 3.13 0 01-4.425-.002l-39.66-39.66 2.654-2.654-16.097-16.096-2.709 2.599-16.539-16.54a3.13 3.13 0 010-4.425L50.76 10.616h16.816l15.415 15.415-2.774 2.757 3.816 3.816 2.792-2.739 46.907 46.907z" fill="#719E1B"/></g><mask id="mask1_0_1915" style="mask-type:alpha" maskUnits="userSpaceOnUse" x="2" y="2" width="134" height="135"><path fill-rule="evenodd" clip-rule="evenodd" d="M78.862 136.07l57.084-57.084L59.169 2.209 2.085 59.293l76.777 76.777z" fill="#fff"/></mask><g mask="url(#mask1_0_1915)" fill-rule="evenodd" clip-rule="evenodd"><path d="M22.883 60.62l4.867-4.867L16.688 44.69l-4.867 4.867L22.883 60.62zm7.23-7.228l4.867-4.868-11.063-11.063-4.867 4.868 11.063 11.063zm7.375-7.375l4.867-4.868-11.063-11.063-4.867 4.868 11.063 11.063zm7.301-7.302l4.867-4.867-11.063-11.063-4.867 4.867 11.063 11.063zm7.375-7.375l4.867-4.867L45.968 15.41 41.1 20.277 52.164 31.34z" fill="#FED55D"/><path d="M78.863 119.547l41.3-41.3-48.381-48.382-41.3 41.3 48.381 48.382z" fill="#85C12F"/></g></svg>