<svg width="137" height="136" viewBox="0 0 137 136" fill="none" xmlns="http://www.w3.org/2000/svg"><path fill-rule="evenodd" clip-rule="evenodd" d="M32.622 71.912c1.24-.001 2.228.887 2.466 2.199h3.549v6.565h-3.55c-.236 1.314-1.226 2.2-2.465 2.202-1.416-.001-2.518-.996-2.518-2.41V74.32c-.001-1.415 1.102-2.41 2.518-2.408zm-.449-40.536c-5.302 5.301-5.658 13.57-.796 18.432 4.863 4.863 13.131 4.506 18.433-.795 5.3-5.301 5.658-13.57.795-18.432-4.863-4.863-13.131-4.506-18.432.795zm19.855 19.856c-6.524 6.525-16.784 6.88-22.87.795-6.086-6.086-5.73-16.345.796-22.87 6.525-6.525 16.783-6.882 22.87-.795 6.085 6.085 5.73 16.345-.795 22.87z" fill="#719E1B"/><mask id="mask0_0_1856" style="mask-type:alpha" maskUnits="userSpaceOnUse" x="20" y="19" width="116" height="117"><path fill-rule="evenodd" clip-rule="evenodd" d="M20.334 77.58l57.671 57.67 57.671-57.67-57.671-57.672-57.671 57.671z" fill="#fff"/></mask><g mask="url(#mask0_0_1856)"><path fill-rule="evenodd" clip-rule="evenodd" d="M52.497 52.07c-14.065 14.065-14.064 36.95 0 51.016 14.066 14.065 36.951 14.066 51.016.001 14.065-14.065 14.064-36.95-.001-51.016-14.065-14.065-36.95-14.066-51.015 0zm54.344 54.345c-15.9 15.9-41.772 15.9-57.672 0-15.9-15.9-15.899-41.771.001-57.672 15.9-15.9 41.771-15.9 57.671 0 15.9 15.9 15.9 41.771 0 57.672z" fill="#719E1B"/></g><mask id="mask1_0_1856" style="mask-type:alpha" maskUnits="userSpaceOnUse" x="0" y="0" width="136" height="136"><path fill-rule="evenodd" clip-rule="evenodd" d="M78.005 135.25l57.672-57.671L58.604.506.933 58.177l77.072 77.073z" fill="#fff"/></mask><g mask="url(#mask1_0_1856)" fill-rule="evenodd" clip-rule="evenodd"><path d="M57.895 58.667l1.115-1.116-3.347-3.346-1.115 1.115 3.346 3.347zm-7.361 17.25l-.001 3.138h-5.49v-3.138h5.491zm5.129 27.373l5.578-5.578-3.347-3.347-5.578 5.578 3.347 3.347zm20.757 1.651l3.138-.001v5.492H76.42v-5.491zm23.865-3.883l1.116-1.115-4.462-4.462-1.116 1.115 4.462 4.462zm5.159-22.003v-3.137h5.492l-.001 3.137h-5.491zm-7.389-18.157l5.577-5.578-3.346-3.346-5.578 5.577 3.347 3.347zM79.557 50.031H76.42v-5.49h3.137v5.49zM47.854 53.09l5.578-5.579-7.81-7.809-5.577 5.578 7.809 7.81z" fill="#719E1B"/><path d="M51.762 36.917a.785.785 0 010 1.11L39.484 50.303a.785.785 0 01-1.109 0l-5.584-5.585a.785.785 0 010-1.108l12.278-12.278a.785.785 0 011.108 0l5.585 5.584zm52.124 40.662H78.005m0 25.885V51.692v51.772z" fill="#719E1B"/><path d="M95.188 60.264l.067.066a24.212 24.212 0 017.119 17.274c-.012 6.235-2.39 12.463-7.147 17.22-4.76 4.76-10.453 6.603-16.688 6.615-6.255.021-11.982-2.873-16.751-7.642l-.067-.067c-4.76-4.76-7.434-10.716-7.444-16.95l24.244.284-17.367-17.367c5.578-5.578 10.799-6.894 17.083-6.878 6.235.01 12.19 2.684 16.95 7.444z" fill="#FED55D"/><path d="M77.952 73.385c2.829-.247 5.126 1.55 5.126 4.388v.252c-.001 2.839-2.297 4.635-5.125 4.388-6.31-.55-18.66-2.774-24.16-3.636-1.146-.18-.951-1.616-.004-1.755 6.44-.956 17.853-3.088 24.163-3.637z" fill="#4E6D0B"/></g></svg>