<svg width="146" height="146" viewBox="0 0 146 146" fill="none" xmlns="http://www.w3.org/2000/svg"><path fill-rule="evenodd" clip-rule="evenodd" d="M107.973 108.325c-19.301 19.301-50.678 19.301-69.98 0-19.302-19.302-19.302-50.679 0-69.98 19.302-19.302 50.679-19.302 69.98 0 19.302 19.301 19.302 50.678 0 69.98z" fill="#20B1FE"/><path fill-rule="evenodd" clip-rule="evenodd" d="M39.114 39.465c-18.629 18.63-18.628 49.11 0 67.737 18.63 18.63 49.11 18.631 67.738.002 18.629-18.629 18.629-49.11-.001-67.738-18.628-18.629-49.108-18.629-67.737 0zm69.992 69.992c-19.868 19.868-52.378 19.869-72.246 0-19.868-19.867-19.868-52.379 0-72.246 19.867-19.868 52.378-19.868 72.246 0 19.869 19.868 19.868 52.379 0 72.246z" fill="#1E90FD"/><path fill-rule="evenodd" clip-rule="evenodd" d="M103.416 103.862c-16.822 16.823-44.138 16.823-60.96 0-16.823-16.822-16.823-44.138 0-60.96 16.822-16.822 44.139-16.823 60.96-.001 16.823 16.822 16.822 44.14 0 60.961z" fill="#fff"/><mask id="mask0_0_582" style="mask-type:alpha" maskUnits="userSpaceOnUse" x="0" y="1" width="146" height="145"><path fill-rule="evenodd" clip-rule="evenodd" d="M72.984 145.582l72.247-72.248L72.984 1.086.736 73.334l72.248 72.248z" fill="#fff"/></mask><g mask="url(#mask0_0_582)" fill-rule="evenodd" clip-rule="evenodd"><path d="M47.922 50.54l2.255-2.255-3.956-3.955-2.254 2.255 3.955 3.954zm51.705 51.705l2.255-2.255-3.955-3.955-2.255 2.255 3.955 3.955zM71.281 37.99v-4.158l3.19.001v4.157h-3.19zm.129 74.717v-4.158h3.188v4.158H71.41zm26.625-62.18l3.954-3.954-2.255-2.255-3.954 3.954 2.255 2.255zm-51.814 51.814l3.956-3.955-2.255-2.255-3.955 3.955 2.255 2.255zm66.074-27.451l-4.157-.001.001-3.187 4.156-.002v3.19zM33.42 71.667h4.158v3.189H33.42v-3.19z" fill="#1783FB"/><path d="M74.482 44.4c.39.39.65.932.65 1.5l-.012 23.15a4.787 4.787 0 00-4.297 0L70.81 45.9c.001-1.134 1.016-2.148 2.149-2.15.591 0 1.133.26 1.522.65z" fill="#168DEF"/><path d="M88 88.35c-.91.91-2.254.91-3.163 0L74.4 77.914a4.756 4.756 0 001.971-1.192 4.708 4.708 0 001.134-1.793L88 85.423c.898.662.91 2.018 0 2.927z" fill="#0C64FD"/><path d="M68.427 71.87a4.778 4.778 0 000 2.93H43.52c-.898-.002-1.464-.568-1.465-1.465 0-.448.142-.826.39-1.074.249-.249.627-.39 1.075-.39h24.908z" fill="#20B1FE"/><path d="M69.596 69.947a4.79 4.79 0 116.776 6.775 4.79 4.79 0 01-6.776-6.775z" fill="#fff"/><path d="M70.73 71.08a3.2 3.2 0 000 4.51 3.199 3.199 0 004.508-.001 3.2 3.2 0 00.001-4.509 3.2 3.2 0 00-4.51 0zm6.774 6.775c-2.478 2.479-6.55 2.491-9.04.001a6.404 6.404 0 010-9.042c2.49-2.49 6.55-2.492 9.042 0 2.49 2.49 2.477 6.562-.002 9.041z" fill="#1783FB"/></g></svg>