<svg width="107" height="104" viewBox="0 0 107 104" fill="none" xmlns="http://www.w3.org/2000/svg"><path fill-rule="evenodd" clip-rule="evenodd" d="M78.26 85.374l12.873 3.14-3.72-12.72-9.152 9.58z" fill="#F15A28"/><mask id="mask0_0_2398" style="mask-type:alpha" maskUnits="userSpaceOnUse" x="0" y="1" width="88" height="85"><path fill-rule="evenodd" clip-rule="evenodd" d="M0 85.361V1h87.4v84.361H0z" fill="#fff"/></mask><g mask="url(#mask0_0_2398)"><path fill-rule="evenodd" clip-rule="evenodd" d="M2.195 3.497C8.794-3.41 28.277 4.502 45.712 21.17c4.68 4.474 8.738 9.126 12.042 13.67l.1 4.408a2.168 2.168 0 002.21 2.113l3.979-.09a98.356 98.356 0 013.815 3.461C79.238 55.61 86.522 67.643 87.4 75.808l-9.127 9.553c-8.193-.508-20.541-7.24-31.922-18.119a99.8 99.8 0 01-3.63-3.654l-.09-3.98a2.17 2.17 0 00-2.21-2.114l-4.408.101c-4.687-3.096-9.516-6.939-14.198-11.414C4.38 29.514-4.404 10.404 2.195 3.497z" fill="#F86703"/></g><mask id="mask1_0_2398" style="mask-type:alpha" maskUnits="userSpaceOnUse" x="0" y="1" width="107" height="103"><path fill-rule="evenodd" clip-rule="evenodd" d="M0 57.595V1h106.402v102.68H0V1h57.754v56.595H0z" fill="#fff"/></mask><g mask="url(#mask1_0_2398)"><path fill-rule="evenodd" clip-rule="evenodd" d="M40.422 57.494l-4.408.101c-4.687-3.096-9.516-6.939-14.198-11.414C4.38 29.514-4.404 10.404 2.195 3.497 8.794-3.41 28.277 4.502 45.712 21.17c4.68 4.474 8.738 9.126 12.042 13.67" fill="#FFC105"/></g><path fill-rule="evenodd" clip-rule="evenodd" d="M78.273 85.362c-5.731-.355-13.498-3.758-21.543-9.496l18.065-.71a2.193 2.193 0 001.507-.692c.383-.407.618-.956.614-1.556l-.118-18.378c6.18 7.843 9.983 15.522 10.602 21.278l-9.127 9.554z" fill="#F15A28"/><path fill-rule="evenodd" clip-rule="evenodd" d="M30.793 33.535a2.618 2.618 0 001.801-.826 2.68 2.68 0 00.736-1.86l-.129-19.951c4.153 2.88 8.39 6.33 12.51 10.27.777.742 1.534 1.49 2.275 2.24l.138 21.316a2.969 2.969 0 01-.816 2.06 2.9 2.9 0 01-1.997.919l-20.963.825a118.879 118.879 0 01-2.533-2.346c-4.065-3.888-7.66-7.907-10.699-11.873l19.677-.773z" fill="#F7941E"/><path fill-rule="evenodd" clip-rule="evenodd" d="M24.349 48.528l20.962-.825a2.904 2.904 0 001.998-.917c.509-.54.82-1.268.815-2.061l-.137-21.316c3.729 3.775 7.01 7.64 9.767 11.43l.1 4.409a2.168 2.168 0 002.21 2.113l3.979-.091c.43.37.858.748 1.286 1.129l.122 18.889a2.974 2.974 0 01-.815 2.06 2.9 2.9 0 01-1.997.918l-18.56.73a98.65 98.65 0 01-1.356-1.408l-.091-3.981a2.167 2.167 0 00-2.21-2.112l-4.408.099c-3.846-2.54-7.788-5.584-11.665-9.066z" fill="#F86703"/><path fill-rule="evenodd" clip-rule="evenodd" d="M93.227 86.766l-5.075 5.311 5.075-5.31z" fill="#BC7400"/><path fill-rule="evenodd" clip-rule="evenodd" d="M82.071 86.015l6.001-6.28 3.502 4.98-4.368 4.617-5.135-3.317zm8.499 12.23l14.065 3.769-6.053-5.08a2.174 2.174 0 01-2.36-.443 2.208 2.208 0 01-.07-3.116 2.207 2.207 0 013.115-.07c.647.618.849 1.561.551 2.336l4.817 6.373-3.914-14.344-7.779-2.354-5.075 5.311 2.703 7.618z" fill="#F15A28"/><path fill-rule="evenodd" clip-rule="evenodd" d="M85.526 90.951c-.785-.75-.813-2.014-.062-2.753l4.898-5.126a1.935 1.935 0 012.754-.063c.785.75.813 1.969.063 2.754L88.28 90.89a1.935 1.935 0 01-2.754.063z" fill="#F15A28"/><mask id="mask2_0_2398" style="mask-type:alpha" maskUnits="userSpaceOnUse" x="102" y="100" width="5" height="4"><path fill-rule="evenodd" clip-rule="evenodd" d="M106.402 103.68h-3.538v-3.538h3.538v3.538z" fill="#fff"/></mask><g mask="url(#mask2_0_2398)"><path fill-rule="evenodd" clip-rule="evenodd" d="M102.865 101.952a1.77 1.77 0 103.54-.081 1.77 1.77 0 00-3.54.081z" fill="#F15A28"/></g><path fill-rule="evenodd" clip-rule="evenodd" d="M95.46 94.978a2.243 2.243 0 104.487-.103 2.243 2.243 0 10-4.487.103z" fill="#fff"/><path fill-rule="evenodd" clip-rule="evenodd" d="M99.818 95.642l-1.315 1.376.332 1.358 5.15 3.243-.565-2.32-3.602-3.657z" fill="#F15A28"/><path fill-rule="evenodd" clip-rule="evenodd" d="M95.46 94.978a2.243 2.243 0 104.487-.103 2.243 2.243 0 10-4.487.103z" fill="#fff"/></svg>