<svg width="41" height="40" viewBox="0 0 41 40" fill="none" xmlns="http://www.w3.org/2000/svg"><mask id="mask0_0_4144" style="mask-type:alpha" maskUnits="userSpaceOnUse" x="0" y="0" width="41" height="40"><path fill-rule="evenodd" clip-rule="evenodd" d="M0 20v20h40.015V0H0v20z" fill="#fff"/></mask><g mask="url(#mask0_0_4144)"><path fill-rule="evenodd" clip-rule="evenodd" d="M40.015 20c0 11.046-8.958 20-20.007 20C8.958 40 0 31.047 0 20S8.958 0 20.008 0c11.05 0 20.007 8.954 20.007 20z" fill="#3F6C96"/></g><path fill-rule="evenodd" clip-rule="evenodd" d="M18.972 26.811h1.34s.404-.044.61-.267c.19-.205.184-.587.184-.587s-.026-1.796.807-2.06c.822-.262 1.878 1.734 2.997 2.502.846.581 1.488.454 1.488.454l2.992-.042s1.564-.096.822-1.326c-.06-.1-.432-.91-2.223-2.572-1.876-1.74-1.625-1.458.634-4.469 1.376-1.833 1.926-2.952 1.754-3.432-.164-.456-1.176-.336-1.176-.336l-3.368.021s-.25-.034-.435.077c-.18.109-.297.361-.297.361s-.533 1.419-1.244 2.625c-1.5 2.545-2.099 2.68-2.344 2.522-.57-.368-.427-1.48-.427-2.269 0-2.467.374-3.496-.73-3.762-.366-.09-.635-.147-1.572-.156-1.201-.012-2.218.003-2.794.285-.383.187-.679.606-.499.63.223.03.727.136.995.499.344.47.333 1.523.333 1.523s.198 2.904-.464 3.265c-.454.248-1.076-.258-2.413-2.567a21.245 21.245 0 01-1.202-2.49s-.1-.245-.279-.376a1.38 1.38 0 00-.516-.208l-3.2.02s-.481.014-.658.223c-.157.186-.012.57-.012.57s2.505 5.86 5.343 8.812c2.601 2.708 5.554 2.53 5.554 2.53z" fill="#fff"/></svg>